<svg width="134" height="23" viewBox="0 0 134 23" fill="none" xmlns="http://www.w3.org/2000/svg">
<path d="M8.196 22H1.316V17.68H8.132C9.58267 17.68 10.7453 17.5093 11.62 17.168C12.4947 16.8053 13.1347 16.1653 13.54 15.248C13.9453 14.3093 14.148 12.9867 14.148 11.28C14.148 9.57333 13.9453 8.26133 13.54 7.344C13.1347 6.40533 12.4947 5.76533 11.62 5.424C10.7453 5.06133 9.58267 4.88 8.132 4.88H1.316V0.559999H8.196C10.5 0.559999 12.4733 0.986666 14.116 1.84C15.78 2.69333 17.06 3.92 17.956 5.52C18.852 7.12 19.3 9.04 19.3 11.28C19.3 13.52 18.852 15.44 17.956 17.04C17.06 18.64 15.78 19.8667 14.116 20.72C12.4733 21.5733 10.5 22 8.196 22ZM4.804 22H0.00400007V0.559999H4.804V22ZM26.2728 22H21.4728V0.559999H26.2728V22ZM40.179 22H35.379V0.559999H40.179V22ZM51.251 22H36.723V17.68H51.251V22ZM62.066 22.32C59.9753 22.32 58.226 21.968 56.818 21.264C55.4313 20.56 54.386 19.568 53.682 18.288C52.9993 16.9867 52.658 15.44 52.658 13.648V0.559999H57.426V13.584C57.426 14.608 57.5647 15.4187 57.842 16.016C58.1407 16.6133 58.6207 17.04 59.282 17.296C59.9433 17.552 60.8713 17.68 62.066 17.68C63.2393 17.68 64.1567 17.552 64.818 17.296C65.5007 17.04 65.9807 16.6133 66.258 16.016C66.5353 15.4187 66.674 14.608 66.674 13.584V0.559999H71.474V13.648C71.474 15.44 71.122 16.9867 70.418 18.288C69.714 19.568 68.658 20.56 67.25 21.264C65.8633 21.968 64.1353 22.32 62.066 22.32ZM83.345 22.32C81.2543 22.32 79.5263 22.0427 78.161 21.488C76.7957 20.9333 75.7823 20.112 75.121 19.024C74.4597 17.936 74.129 16.6027 74.129 15.024V14.608H78.833V14.928C78.833 15.7173 78.961 16.336 79.217 16.784C79.473 17.2107 79.9317 17.52 80.593 17.712C81.2757 17.8827 82.2677 17.968 83.569 17.968C84.9343 17.968 85.841 17.8187 86.289 17.52C86.737 17.2213 86.961 16.7093 86.961 15.984C86.961 15.4933 86.8863 15.0987 86.737 14.8C86.609 14.5013 86.3103 14.256 85.841 14.064C85.3717 13.8507 84.6357 13.6693 83.633 13.52L79.857 12.848C78.4917 12.6133 77.3717 12.2293 76.497 11.696C75.6437 11.1413 75.0143 10.4587 74.609 9.648C74.225 8.816 74.033 7.84533 74.033 6.736C74.033 5.62667 74.3103 4.58133 74.865 3.6C75.441 2.61867 76.3583 1.81867 77.617 1.2C78.897 0.559999 80.5503 0.24 82.577 0.24C84.625 0.24 86.2783 0.559999 87.537 1.2C88.817 1.84 89.7557 2.72533 90.353 3.856C90.9503 4.96533 91.249 6.23467 91.249 7.664V7.92H86.513V7.568C86.513 6.82133 86.3957 6.23467 86.161 5.808C85.9263 5.38133 85.5103 5.072 84.913 4.88C84.3157 4.688 83.4837 4.592 82.417 4.592C81.0517 4.592 80.1023 4.752 79.569 5.072C79.057 5.37067 78.801 5.86133 78.801 6.544C78.801 6.992 78.8863 7.35467 79.057 7.632C79.2277 7.888 79.5263 8.09067 79.953 8.24C80.401 8.38933 81.041 8.54933 81.873 8.72L85.681 9.456C87.1743 9.73333 88.3583 10.1813 89.233 10.8C90.129 11.3973 90.769 12.1227 91.153 12.976C91.537 13.8293 91.729 14.7787 91.729 15.824C91.729 16.9547 91.4517 18.0213 90.897 19.024C90.3423 20.0053 89.457 20.8053 88.241 21.424C87.025 22.0213 85.393 22.32 83.345 22.32ZM103.158 22.32C101.067 22.32 99.3388 22.0427 97.9735 21.488C96.6082 20.9333 95.5948 20.112 94.9335 19.024C94.2722 17.936 93.9415 16.6027 93.9415 15.024V14.608H98.6455V14.928C98.6455 15.7173 98.7735 16.336 99.0295 16.784C99.2855 17.2107 99.7442 17.52 100.406 17.712C101.088 17.8827 102.08 17.968 103.382 17.968C104.747 17.968 105.654 17.8187 106.102 17.52C106.55 17.2213 106.774 16.7093 106.774 15.984C106.774 15.4933 106.699 15.0987 106.55 14.8C106.422 14.5013 106.123 14.256 105.654 14.064C105.184 13.8507 104.448 13.6693 103.446 13.52L99.6695 12.848C98.3042 12.6133 97.1842 12.2293 96.3095 11.696C95.4562 11.1413 94.8268 10.4587 94.4215 9.648C94.0375 8.816 93.8455 7.84533 93.8455 6.736C93.8455 5.62667 94.1228 4.58133 94.6775 3.6C95.2535 2.61867 96.1708 1.81867 97.4295 1.2C98.7095 0.559999 100.363 0.24 102.39 0.24C104.438 0.24 106.091 0.559999 107.35 1.2C108.63 1.84 109.568 2.72533 110.166 3.856C110.763 4.96533 111.062 6.23467 111.062 7.664V7.92H106.326V7.568C106.326 6.82133 106.208 6.23467 105.974 5.808C105.739 5.38133 105.323 5.072 104.726 4.88C104.128 4.688 103.296 4.592 102.23 4.592C100.864 4.592 99.9148 4.752 99.3815 5.072C98.8695 5.37067 98.6135 5.86133 98.6135 6.544C98.6135 6.992 98.6988 7.35467 98.8695 7.632C99.0402 7.888 99.3388 8.09067 99.7655 8.24C100.214 8.38933 100.854 8.54933 101.686 8.72L105.494 9.456C106.987 9.73333 108.171 10.1813 109.046 10.8C109.942 11.3973 110.582 12.1227 110.966 12.976C111.35 13.8293 111.542 14.7787 111.542 15.824C111.542 16.9547 111.264 18.0213 110.71 19.024C110.155 20.0053 109.27 20.8053 108.054 21.424C106.838 22.0213 105.206 22.32 103.158 22.32ZM123.297 22.32C121.142 22.32 119.297 21.872 117.761 20.976C116.246 20.0587 115.073 18.7787 114.241 17.136C113.409 15.472 112.993 13.52 112.993 11.28C112.993 9.04 113.409 7.09867 114.241 5.456C115.073 3.792 116.246 2.512 117.761 1.616C119.297 0.698666 121.142 0.24 123.297 0.24C125.43 0.24 127.265 0.698666 128.801 1.616C130.337 2.512 131.51 3.792 132.321 5.456C133.153 7.09867 133.569 9.04 133.569 11.28C133.569 13.52 133.153 15.472 132.321 17.136C131.51 18.7787 130.337 20.0587 128.801 20.976C127.265 21.872 125.43 22.32 123.297 22.32ZM123.297 17.68C124.513 17.68 125.494 17.4987 126.241 17.136C127.009 16.752 127.563 16.1013 127.905 15.184C128.267 14.2453 128.449 12.944 128.449 11.28C128.449 9.59467 128.267 8.29333 127.905 7.376C127.563 6.45867 127.009 5.81867 126.241 5.456C125.494 5.072 124.513 4.88 123.297 4.88C122.059 4.88 121.057 5.072 120.289 5.456C119.542 5.81867 118.987 6.45867 118.625 7.376C118.283 8.29333 118.113 9.59467 118.113 11.28C118.113 12.944 118.283 14.2453 118.625 15.184C118.987 16.1013 119.542 16.752 120.289 17.136C121.057 17.4987 122.059 17.68 123.297 17.68Z" fill="black"/>
</svg>
